<?xml version="1.0" standalone="no"?><!DOCTYPE svg PUBLIC "-//W3C//DTD SVG 1.1//EN" "http://www.w3.org/Graphics/SVG/1.1/DTD/svg11.dtd"><svg t="1668333918497" class="icon" viewBox="0 0 1024 1024" version="1.1" xmlns="http://www.w3.org/2000/svg" p-id="3083" xmlns:xlink="http://www.w3.org/1999/xlink" width="128" height="128"><path d="M790.4256 604.7744c-19.7632 0-38.7072 7.7824-52.6336 21.7088-13.9264 13.9264-21.7088 32.8704-21.7088 52.6336 0 41.0624 33.28 74.3424 74.3424 74.3424s74.3424-33.28 74.3424-74.3424-33.28-74.3424-74.3424-74.3424zM234.0864 604.4672c-41.0624 0-74.3424 33.28-74.3424 74.3424s33.28 74.3424 74.3424 74.3424 74.3424-33.28 74.3424-74.3424c-0.1024-41.0624-33.28-74.3424-74.3424-74.3424z" p-id="3084" fill="#FF8C00"></path><path d="M646.8608 496.4352H382.464V287.232c-1.024-9.3184-8.8064-16.5888-18.432-16.5888H215.3472c-10.1376 0-24.1664 5.9392-31.1296 13.2096L51.9168 461.824c-2.8672 9.6256-3.6864 26.2144-3.8912 36.6592v161.8944c0 10.4448 8.2944 18.7392 18.432 18.7392h55.9104c0-61.3376 49.8688-111.2064 111.5136-111.2064S345.2928 617.472 345.2928 679.0144h333.312c0-59.1872 45.9776-107.52 104.1408-111.2064 0.6144-0.1024 1.3312-0.1024 1.8432-0.2048H790.016c2.56 0 4.9152 0 7.2704 0.3072 58.1632 3.8912 104.2432 52.0192 104.2432 111.2064h55.6032c10.3424 0 18.7392-8.2944 18.7392-18.432V496.4352H646.8608z m-318.2592-58.9824c0 10.3424-8.2944 18.7392-18.432 18.7392H134.2464c-10.1376 0-13.7216-6.7584-8.0896-15.0528l66.7648-97.3824c5.7344-8.6016 18.432-15.36 28.8768-15.36h88.3712c10.1376 0 18.432 8.6016 18.432 18.7392v90.3168z" p-id="3085" fill="#FF8C00"></path></svg>