<?xml version="1.0" standalone="no"?><!DOCTYPE svg PUBLIC "-//W3C//DTD SVG 1.1//EN" "http://www.w3.org/Graphics/SVG/1.1/DTD/svg11.dtd"><svg t="1668334499840" class="icon" viewBox="0 0 1024 1024" version="1.1" xmlns="http://www.w3.org/2000/svg" p-id="10313" width="128" height="128" xmlns:xlink="http://www.w3.org/1999/xlink"><path d="M883.984 255.136a822.304 822.304 0 0 0-78.832-90.16 818.56 818.56 0 0 0-90.16-78.816C668.352 51.968 645.744 48 632.784 48H184.336A72.416 72.416 0 0 0 112 120.336v781.184a72.432 72.432 0 0 0 72.336 72.336h665.456a72.432 72.432 0 0 0 72.336-72.336V337.328c0-12.96-3.968-35.584-38.128-82.192m-119.776-49.248a789.968 789.968 0 0 1 65.6 73.6h-139.2v-139.2a791.168 791.168 0 0 1 73.6 65.6m100.016 695.632a14.656 14.656 0 0 1-14.4 14.4H184.336a14.656 14.656 0 0 1-14.4-14.4V120.336a14.656 14.656 0 0 1 14.4-14.4h448.448v202.448a28.944 28.944 0 0 0 28.928 28.928h202.544z" p-id="10314" fill="#FF8C00"></path><path d="M265.84 814.944h491.824V384.624H265.84z m184.448-245.952h122.928v92.24h-122.928z m122.928 215.232h-122.928v-92.24h122.928z m0-245.904h-122.928v-92.176h122.928z m-153.6 0h-122.96v-92.176h122.96z m-122.96 30.704h122.96v92.24h-122.96z m307.376 0h122.96v92.24h-122.96z m0-30.72v-92.16h122.96v92.208h-122.96zM296.656 692h122.96v92.24h-122.96z m307.376 0h122.96v92.24h-122.96z" p-id="10315" fill="#FF8C00"></path></svg>